<svg width="1796" height="1037" viewBox="0 0 1796 1037" fill="none" xmlns="http://www.w3.org/2000/svg">
<rect width="1796" height="1037" fill="white"/>
<path d="M238.296 119.597C240.31 151.407 216.156 178.827 184.346 180.841C152.535 182.854 125.116 158.7 123.102 126.89C121.088 95.0793 145.243 67.66 177.053 65.6462C208.863 63.6324 236.283 87.7867 238.296 119.597Z" fill="#E6E6E6"/>
<path d="M195.75 139.191C195.565 140.004 195.221 140.771 194.738 141.45C194.255 142.128 193.641 142.704 192.934 143.144C192.229 143.588 191.443 143.888 190.621 144.026C189.8 144.164 188.959 144.138 188.147 143.949L171.622 140.145L174.467 127.785L190.992 131.589L190.993 131.589C194.4 132.373 196.534 135.784 195.75 139.191ZM199.646 113.983C200.09 114.688 200.39 115.474 200.528 116.296C200.666 117.118 200.64 117.959 200.451 118.77C199.666 122.177 196.254 124.31 192.849 123.528L192.848 123.528L176.323 119.724L179.167 107.363L195.693 111.167C196.505 111.352 197.273 111.696 197.952 112.179C198.63 112.663 199.206 113.276 199.646 113.983ZM206.658 109.595C204.587 106.286 201.352 103.981 197.548 103.106L195.362 102.603L197.728 92.3254L189.874 90.5175L187.508 100.795L180.803 99.2519L183.169 88.9741L181.288 88.5409L173.666 86.7867L171.386 96.6936L162.098 94.5556L160.072 103.358L169.36 105.497L161.985 137.536L152.697 135.398L150.671 144.201L159.958 146.339L158.034 154.701L159.915 155.134L167.537 156.888L169.547 148.155L176.268 149.703L174.258 158.436L182.08 160.236L184.09 151.503L186.291 152.01C187.675 152.329 189.097 152.447 190.514 152.358C192.904 152.207 195.234 151.463 197.322 150.157C200.631 148.086 202.935 144.851 203.811 141.046C204.731 137.045 203.899 133.046 201.829 129.843C205.094 127.867 207.59 124.629 208.511 120.626C209.387 116.821 208.729 112.904 206.658 109.595Z" fill="white"/>
<path d="M146.459 241.34C172.12 235.816 197.395 252.135 202.92 277.796C208.445 303.457 192.125 328.733 166.464 334.258C140.803 339.783 115.528 323.463 110.003 297.802C104.478 272.141 120.807 246.864 146.459 241.34Z" fill="#DADADA"/>
<path d="M149.338 254.668L159.305 300.963L177.023 284.388L149.338 254.668ZM163.603 320.926L177.658 287.337L159.964 304.021L163.603 320.926ZM149.338 254.668L159.305 300.963L136.327 293.15L149.338 254.668Z" fill="white"/>
<path d="M159.964 304.021L163.603 320.926L136.962 296.099L159.964 304.021Z" fill="white"/>
<path opacity="0.45" d="M171.921 492.786L170.37 518.788L147.403 529.963L148.954 503.961L171.921 492.786ZM183.828 575.359L185.379 549.357L208.346 538.183L206.795 564.185L183.828 575.359Z" fill="#C1C1C1"/>
<path opacity="0.6" d="M170.365 518.791L193.332 507.617L171.915 492.789L148.949 503.963L170.365 518.791ZM185.384 549.355L162.417 560.529L183.833 575.357L206.8 564.183L185.384 549.355Z" fill="#C1C1C1"/>
<path opacity="0.8" d="M168.819 544.79L170.37 518.788L148.954 503.961L147.403 529.963L168.819 544.79ZM186.929 523.355L185.379 549.357L206.795 564.185L208.346 538.183L186.929 523.355Z" fill="#C1C1C1"/>
<path d="M1591.17 292.648L1586.38 291.056C1586.25 290.659 1586.11 290.262 1585.97 289.867L1588.76 285.668C1588.9 285.457 1588.98 285.216 1589 284.966C1589.02 284.715 1588.97 284.464 1588.87 284.236C1588.76 284.008 1588.6 283.811 1588.4 283.662C1588.2 283.513 1587.96 283.417 1587.71 283.384L1582.72 282.759C1582.51 282.39 1582.3 282.024 1582.08 281.661L1583.99 277.005C1584.09 276.772 1584.12 276.519 1584.09 276.268C1584.07 276.018 1583.97 275.78 1583.82 275.576C1583.68 275.372 1583.48 275.209 1583.25 275.103C1583.02 274.996 1582.77 274.951 1582.52 274.969L1577.5 275.335C1577.22 275.014 1576.94 274.698 1576.65 274.387L1577.62 269.441C1577.73 268.938 1577.55 268.42 1577.18 268.074C1576.8 267.729 1576.28 267.597 1575.78 267.733L1570.91 269.074C1570.58 268.815 1570.25 268.563 1569.91 268.318L1569.9 263.268C1569.9 263.017 1569.84 262.769 1569.71 262.55C1569.59 262.33 1569.41 262.146 1569.2 262.014C1568.98 261.882 1568.74 261.807 1568.49 261.796C1568.24 261.785 1567.99 261.838 1567.76 261.95L1563.25 264.217C1562.87 264.029 1562.5 263.845 1562.12 263.665L1561.12 258.713C1561.08 258.464 1560.97 258.232 1560.8 258.039C1560.64 257.845 1560.43 257.697 1560.19 257.609C1559.96 257.521 1559.7 257.496 1559.45 257.535C1559.2 257.575 1558.97 257.679 1558.77 257.836L1554.79 260.934C1554.38 260.822 1553.97 260.711 1553.56 260.609L1551.62 255.957C1551.52 255.726 1551.37 255.523 1551.17 255.369C1550.97 255.214 1550.74 255.112 1550.49 255.072C1550.24 255.032 1549.99 255.056 1549.75 255.141C1549.52 255.226 1549.31 255.369 1549.14 255.558L1545.84 259.368C1545.42 259.335 1545 259.31 1544.57 259.293L1541.77 255.113C1541.62 254.906 1541.43 254.738 1541.21 254.624C1540.99 254.511 1540.74 254.457 1540.49 254.466C1540.23 254.475 1539.99 254.547 1539.77 254.677C1539.56 254.806 1539.38 254.988 1539.26 255.205L1536.76 259.594C1536.35 259.645 1535.93 259.702 1535.52 259.766L1531.94 256.205C1531.76 256.027 1531.54 255.898 1531.3 255.829C1531.06 255.761 1530.8 255.756 1530.56 255.814C1530.31 255.872 1530.09 255.992 1529.9 256.162C1529.71 256.332 1529.58 256.547 1529.5 256.786L1527.9 261.578C1527.51 261.708 1527.11 261.847 1526.72 261.985L1522.51 259.189C1522.3 259.049 1522.06 258.966 1521.81 258.946C1521.56 258.926 1521.3 258.971 1521.08 259.076C1520.85 259.181 1520.65 259.343 1520.5 259.547C1520.35 259.75 1520.26 259.988 1520.23 260.238L1519.6 265.234C1519.23 265.443 1518.87 265.657 1518.5 265.873L1513.85 263.956C1513.61 263.862 1513.36 263.829 1513.11 263.859C1512.86 263.89 1512.63 263.983 1512.42 264.13C1512.22 264.278 1512.06 264.474 1511.95 264.701C1511.84 264.928 1511.79 265.179 1511.81 265.429L1512.17 270.457C1511.85 270.733 1511.54 271.014 1511.23 271.299L1506.28 270.325C1506.03 270.276 1505.78 270.291 1505.54 270.369C1505.3 270.447 1505.08 270.585 1504.91 270.77C1504.74 270.955 1504.62 271.18 1504.56 271.425C1504.5 271.67 1504.5 271.926 1504.57 272.169L1505.91 277.039C1505.65 277.367 1505.4 277.702 1505.15 278.04L1500.1 278.049C1499.85 278.05 1499.6 278.115 1499.38 278.238C1499.16 278.361 1498.98 278.539 1498.85 278.753C1498.72 278.967 1498.64 279.212 1498.63 279.463C1498.62 279.714 1498.67 279.965 1498.78 280.19L1501.05 284.703C1500.86 285.076 1500.67 285.453 1500.5 285.827L1495.55 286.824C1495.3 286.873 1495.07 286.984 1494.88 287.148C1494.68 287.311 1494.54 287.521 1494.45 287.757C1494.36 287.993 1494.34 288.247 1494.37 288.496C1494.41 288.745 1494.51 288.981 1494.67 289.179L1497.77 293.157C1497.65 293.564 1497.54 293.973 1497.44 294.383L1492.79 296.319C1492.56 296.417 1492.36 296.572 1492.2 296.77C1492.05 296.967 1491.95 297.201 1491.91 297.449C1491.87 297.697 1491.89 297.951 1491.98 298.187C1492.06 298.423 1492.21 298.634 1492.39 298.8L1496.2 302.094C1496.17 302.518 1496.15 302.937 1496.12 303.363L1491.94 306.172C1491.74 306.313 1491.57 306.505 1491.45 306.729C1491.34 306.953 1491.29 307.202 1491.3 307.453C1491.31 307.704 1491.38 307.948 1491.51 308.163C1491.64 308.378 1491.82 308.557 1492.04 308.683L1496.42 311.174C1496.47 311.59 1496.53 312.006 1496.59 312.42L1493.03 315.999C1492.85 316.176 1492.72 316.397 1492.65 316.64C1492.58 316.882 1492.57 317.139 1492.63 317.385C1492.69 317.631 1492.81 317.857 1492.98 318.042C1493.16 318.228 1493.37 318.365 1493.61 318.442L1498.4 320.034C1498.53 320.434 1498.67 320.831 1498.81 321.224L1496.02 325.428C1495.88 325.637 1495.8 325.879 1495.78 326.13C1495.76 326.381 1495.8 326.633 1495.91 326.862C1496.01 327.091 1496.17 327.289 1496.38 327.437C1496.58 327.586 1496.82 327.68 1497.07 327.711L1502.06 328.336C1502.27 328.708 1502.49 329.073 1502.71 329.434L1500.79 334.09C1500.69 334.323 1500.66 334.577 1500.69 334.828C1500.72 335.079 1500.81 335.318 1500.96 335.523C1501.11 335.727 1501.3 335.89 1501.53 335.995C1501.76 336.101 1502.02 336.145 1502.27 336.125L1507.29 335.759C1507.57 336.079 1507.85 336.394 1508.13 336.707L1507.16 341.654C1507.11 341.901 1507.13 342.157 1507.2 342.396C1507.28 342.636 1507.42 342.852 1507.6 343.023C1507.79 343.194 1508.01 343.315 1508.26 343.375C1508.5 343.434 1508.76 343.43 1509 343.362L1513.87 342.022C1514.2 342.281 1514.53 342.535 1514.87 342.782L1514.88 347.835C1514.88 348.087 1514.95 348.334 1515.07 348.554C1515.2 348.773 1515.37 348.957 1515.59 349.089C1515.8 349.221 1516.05 349.295 1516.3 349.306C1516.55 349.316 1516.8 349.262 1517.02 349.149L1521.54 346.886C1521.91 347.077 1522.29 347.258 1522.67 347.434L1523.66 352.386C1523.71 352.634 1523.82 352.866 1523.98 353.059C1524.15 353.251 1524.36 353.399 1524.59 353.486C1524.83 353.574 1525.08 353.599 1525.33 353.559C1525.58 353.52 1525.82 353.416 1526.02 353.259L1529.99 350.165C1530.4 350.281 1530.81 350.388 1531.22 350.49L1533.16 355.138C1533.26 355.37 1533.41 355.573 1533.61 355.728C1533.81 355.883 1534.04 355.986 1534.29 356.026C1534.54 356.066 1534.79 356.043 1535.03 355.958C1535.27 355.873 1535.48 355.73 1535.64 355.541L1538.94 351.732C1539.36 351.765 1539.78 351.793 1540.21 351.812L1543.02 355.991C1543.15 356.202 1543.35 356.373 1543.57 356.488C1543.79 356.604 1544.04 356.66 1544.3 356.65C1544.55 356.641 1544.79 356.567 1545.01 356.436C1545.22 356.304 1545.4 356.12 1545.53 355.9L1548.02 351.514C1548.44 351.464 1548.85 351.405 1549.27 351.346L1552.85 354.907C1553.03 355.084 1553.25 355.212 1553.49 355.28C1553.73 355.347 1553.99 355.352 1554.23 355.294C1554.47 355.236 1554.7 355.117 1554.89 354.947C1555.07 354.778 1555.21 354.564 1555.29 354.326L1556.88 349.534C1557.28 349.399 1557.68 349.265 1558.07 349.122L1562.27 351.916C1562.48 352.053 1562.72 352.134 1562.97 352.153C1563.22 352.171 1563.47 352.126 1563.7 352.021C1563.93 351.917 1564.13 351.756 1564.28 351.554C1564.43 351.352 1564.52 351.115 1564.55 350.867L1565.18 345.87C1565.55 345.662 1565.92 345.446 1566.28 345.227L1570.93 347.144C1571.17 347.242 1571.42 347.278 1571.67 347.249C1571.92 347.219 1572.16 347.126 1572.37 346.978C1572.57 346.829 1572.73 346.631 1572.84 346.401C1572.94 346.171 1572.99 345.918 1572.97 345.667L1572.61 340.643C1572.93 340.367 1573.24 340.084 1573.55 339.801L1578.5 340.771C1578.75 340.819 1579 340.803 1579.24 340.725C1579.48 340.647 1579.69 340.509 1579.86 340.325C1580.04 340.141 1580.16 339.917 1580.22 339.673C1580.28 339.429 1580.27 339.174 1580.21 338.932L1578.87 334.061C1579.13 333.733 1579.38 333.403 1579.63 333.065L1584.67 333.053C1584.93 333.051 1585.17 332.986 1585.39 332.863C1585.61 332.74 1585.79 332.564 1585.93 332.35C1586.06 332.136 1586.13 331.892 1586.15 331.641C1586.16 331.391 1586.1 331.141 1585.99 330.916L1583.73 326.398C1583.92 326.025 1584.1 325.649 1584.28 325.27L1589.23 324.273C1589.48 324.226 1589.71 324.116 1589.9 323.953C1590.1 323.79 1590.24 323.58 1590.33 323.343C1590.42 323.106 1590.45 322.85 1590.41 322.601C1590.37 322.351 1590.26 322.116 1590.11 321.918L1587.01 317.939C1587.12 317.531 1587.24 317.123 1587.34 316.713L1591.99 314.778C1592.22 314.679 1592.42 314.524 1592.57 314.326C1592.73 314.129 1592.83 313.895 1592.87 313.647C1592.91 313.399 1592.89 313.145 1592.8 312.909C1592.72 312.673 1592.57 312.462 1592.39 312.296L1588.58 309.002L1588.66 307.733L1592.84 304.924C1593.04 304.784 1593.22 304.593 1593.33 304.369C1593.44 304.145 1593.5 303.895 1593.49 303.643C1593.48 303.391 1593.41 303.146 1593.28 302.931C1593.15 302.716 1592.96 302.538 1592.74 302.413L1588.36 299.918C1588.3 299.505 1588.25 299.087 1588.19 298.672L1591.75 295.093C1591.93 294.915 1592.06 294.695 1592.13 294.452C1592.2 294.209 1592.2 293.953 1592.15 293.707C1592.09 293.461 1591.97 293.235 1591.79 293.05C1591.62 292.864 1591.41 292.727 1591.17 292.649L1591.17 292.648ZM1571.46 333.943C1570.65 333.962 1569.87 333.659 1569.29 333.102C1568.71 332.544 1568.37 331.778 1568.35 330.971C1568.33 330.165 1568.63 329.384 1569.19 328.8C1569.75 328.217 1570.51 327.879 1571.32 327.86C1571.72 327.851 1572.12 327.921 1572.49 328.066C1572.86 328.211 1573.2 328.427 1573.49 328.703C1573.78 328.98 1574.01 329.31 1574.17 329.676C1574.33 330.041 1574.42 330.435 1574.43 330.835C1574.44 331.234 1574.37 331.632 1574.22 332.004C1574.08 332.377 1573.86 332.717 1573.59 333.006C1573.31 333.294 1572.98 333.526 1572.62 333.687C1572.25 333.848 1571.86 333.936 1571.46 333.944L1571.46 333.943ZM1567.76 324.685C1567.39 324.693 1567.04 324.772 1566.7 324.919C1566.37 325.066 1566.07 325.277 1565.82 325.541C1565.57 325.804 1565.37 326.114 1565.24 326.454C1565.11 326.794 1565.04 327.156 1565.05 327.52L1565.22 334.79C1561.14 337.957 1556.33 340.32 1550.98 341.593C1545.69 342.86 1540.18 342.952 1534.85 341.864L1531.73 335.298C1531.57 334.969 1531.35 334.675 1531.08 334.431C1530.81 334.187 1530.5 333.998 1530.15 333.877C1529.81 333.755 1529.45 333.703 1529.08 333.722C1528.72 333.742 1528.36 333.833 1528.04 333.99L1522.24 336.753C1520.83 335.854 1519.48 334.861 1518.2 333.781L1547.92 326.709C1548.25 326.629 1548.47 326.517 1548.39 326.21L1545.89 315.695C1545.82 315.388 1545.58 315.383 1545.24 315.463L1536.55 317.532L1534.96 310.866L1544.36 308.629C1545.22 308.425 1549.01 307.78 1551.34 312.265C1552.06 313.642 1554.01 318.22 1554.94 319.614C1555.91 321.194 1558.99 324.073 1561.42 323.496L1576.23 319.972C1576.41 319.927 1576.59 319.866 1576.75 319.79C1576.06 321.429 1575.25 323.017 1574.33 324.541L1567.76 324.685ZM1528.9 343.919C1528.54 344.091 1528.15 344.191 1527.75 344.212C1527.35 344.233 1526.95 344.175 1526.57 344.041C1526.2 343.908 1525.85 343.702 1525.55 343.434C1525.26 343.167 1525.01 342.844 1524.84 342.483C1524.67 342.122 1524.57 341.731 1524.55 341.332C1524.53 340.933 1524.59 340.534 1524.72 340.157C1524.85 339.78 1525.06 339.434 1525.33 339.137C1525.6 338.84 1525.92 338.598 1526.28 338.426C1527.01 338.079 1527.84 338.035 1528.6 338.305C1529.37 338.574 1529.99 339.135 1530.34 339.863C1530.68 340.591 1530.73 341.428 1530.46 342.189C1530.19 342.95 1529.63 343.572 1528.9 343.919ZM1506.74 300.88C1507 301.197 1507.19 301.561 1507.31 301.953C1507.42 302.344 1507.45 302.754 1507.41 303.159C1507.36 303.564 1507.23 303.955 1507.03 304.308C1506.83 304.662 1506.55 304.972 1506.23 305.219C1505.91 305.466 1505.54 305.646 1505.14 305.747C1504.75 305.848 1504.33 305.869 1503.93 305.808C1503.53 305.748 1503.14 305.607 1502.79 305.394C1502.45 305.18 1502.15 304.9 1501.91 304.568C1501.45 303.925 1501.26 303.128 1501.38 302.347C1501.5 301.566 1501.91 300.861 1502.54 300.382C1503.17 299.902 1503.96 299.686 1504.74 299.78C1505.53 299.873 1506.25 300.268 1506.74 300.88ZM1505.24 309.919L1510.93 305.576C1511.22 305.355 1511.46 305.08 1511.64 304.765C1511.83 304.45 1511.94 304.102 1511.99 303.741C1512.04 303.381 1512.02 303.014 1511.92 302.662C1511.83 302.31 1511.67 301.98 1511.45 301.691L1509.43 299.039L1514.59 297.812L1520.12 321.042L1509.72 323.517C1507.36 319.313 1505.84 314.694 1505.24 309.914L1505.24 309.919ZM1532.62 301.021L1530.99 294.175L1543.27 291.254C1543.9 291.103 1547.92 290.924 1548.6 293.795C1549.17 296.18 1546.43 297.737 1544 298.314L1532.62 301.021ZM1578.69 296.57C1578.91 297.477 1579.09 298.388 1579.24 299.293L1575.5 300.181C1575.13 300.27 1575.04 300.55 1575.13 300.919L1575.53 302.632C1576.49 306.666 1574.43 308.085 1572.49 308.781C1570.64 309.447 1568.3 308.94 1567.76 307.839C1565.14 301.809 1562.96 300.905 1559.46 299.285C1562.56 296.094 1565.55 291.763 1564.46 287.179C1563.28 282.23 1559.14 279.919 1556.47 278.938C1552.71 277.569 1549.02 277.996 1548.05 278.226L1509.46 287.408C1513.37 280.176 1519.56 274.437 1527.07 271.082L1532.76 274.772C1533.06 274.971 1533.4 275.107 1533.76 275.173C1534.12 275.24 1534.48 275.235 1534.84 275.159C1535.2 275.083 1535.53 274.937 1535.83 274.731C1536.13 274.524 1536.39 274.26 1536.58 273.954L1540.51 267.874C1545.93 267.613 1551.34 268.534 1556.37 270.573C1561.4 272.612 1565.92 275.72 1569.63 279.682L1568.02 288.382C1567.88 289.104 1568.04 289.85 1568.46 290.456C1568.87 291.062 1569.51 291.479 1570.23 291.616L1577.65 293C1578.05 294.164 1578.4 295.351 1578.69 296.572L1578.69 296.57ZM1530.66 265.943C1530.88 265.609 1531.16 265.32 1531.49 265.094C1531.82 264.868 1532.19 264.708 1532.58 264.625C1532.97 264.542 1533.37 264.537 1533.76 264.609C1534.15 264.681 1534.53 264.831 1534.86 265.048C1535.2 265.265 1535.49 265.546 1535.71 265.874C1535.94 266.203 1536.1 266.573 1536.18 266.963C1536.26 267.354 1536.27 267.756 1536.2 268.149C1536.12 268.541 1535.97 268.915 1535.76 269.25C1535.3 269.883 1534.62 270.316 1533.85 270.459C1533.08 270.603 1532.29 270.446 1531.64 270.021C1530.98 269.597 1530.51 268.937 1530.33 268.177C1530.15 267.418 1530.27 266.619 1530.66 265.943ZM1571.86 285.539C1571.93 285.147 1572.08 284.773 1572.29 284.438C1572.51 284.103 1572.79 283.815 1573.12 283.589C1573.45 283.364 1573.82 283.205 1574.21 283.123C1574.6 283.04 1575 283.036 1575.39 283.109C1575.99 283.218 1576.53 283.5 1576.96 283.92C1577.4 284.339 1577.69 284.878 1577.82 285.466C1577.94 286.055 1577.89 286.668 1577.67 287.227C1577.45 287.786 1577.06 288.267 1576.57 288.608C1576.07 288.949 1575.49 289.135 1574.88 289.143C1574.28 289.151 1573.69 288.98 1573.19 288.652C1572.68 288.324 1572.29 287.853 1572.05 287.3C1571.81 286.747 1571.74 286.136 1571.85 285.544L1571.86 285.539Z" fill="#CECECE"/>
<path d="M1551.9 110.572C1554 111.738 1555.56 113.697 1556.22 116.017C1556.89 118.338 1556.6 120.829 1555.43 122.944L1552.42 128.376L1560.51 132.853C1561.55 133.43 1562.47 134.208 1563.21 135.143C1563.95 136.077 1564.51 137.149 1564.83 138.298C1565.16 139.447 1565.26 140.65 1565.12 141.838C1564.99 143.027 1564.62 144.178 1564.04 145.225L1556.58 158.704L1519.17 138.003L1507.3 159.458L1544.7 180.159L1537.24 193.639C1536.07 195.754 1534.11 197.319 1531.79 197.99C1529.48 198.661 1526.99 198.383 1524.88 197.216L1457.95 160.171C1455.84 159.004 1454.28 157.046 1453.62 154.725C1452.96 152.405 1453.24 149.914 1454.41 147.798L1485.69 91.2914C1487.64 87.7663 1490.9 85.1577 1494.77 84.0395C1498.63 82.9213 1502.77 83.3851 1506.28 85.3288L1551.9 110.572ZM1551.84 166.498L1548.79 172.004L1519.66 155.88L1522.7 150.378L1551.84 166.501L1551.84 166.498ZM1547.48 118.544L1501.87 93.3037C1500.47 92.5262 1498.81 92.3407 1497.26 92.7879C1495.72 93.2352 1494.41 94.2787 1493.63 95.6887L1493.56 95.8042L1544.47 123.979L1547.48 118.546L1547.48 118.544Z" fill="#D7D7D7"/>
<path d="M1530.88 427.917C1530.16 427.921 1529.46 428.091 1528.81 428.412C1528.17 428.734 1527.61 429.198 1527.18 429.77L1520.23 439.037C1519.71 439.726 1519.39 440.544 1519.32 441.401C1519.24 442.258 1519.4 443.12 1519.79 443.89C1520.17 444.659 1520.76 445.307 1521.5 445.759C1522.23 446.211 1523.07 446.451 1523.93 446.451H1591.12C1591.84 446.446 1592.55 446.276 1593.19 445.955C1593.83 445.634 1594.39 445.169 1594.83 444.598L1601.78 435.33C1602.29 434.642 1602.61 433.823 1602.69 432.966C1602.76 432.109 1602.6 431.248 1602.21 430.478C1601.83 429.708 1601.24 429.061 1600.51 428.609C1599.77 428.156 1598.93 427.917 1598.07 427.917H1530.88Z" fill="#C3C3C3"/>
<path d="M1591.12 458.036C1591.84 458.041 1592.55 458.21 1593.19 458.532C1593.83 458.853 1594.39 459.317 1594.83 459.889L1601.78 469.156C1602.29 469.845 1602.61 470.663 1602.69 471.52C1602.76 472.377 1602.6 473.239 1602.21 474.009C1601.83 474.778 1601.24 475.426 1600.51 475.878C1599.77 476.331 1598.93 476.57 1598.07 476.57H1530.88C1530.16 476.565 1529.46 476.396 1528.81 476.074C1528.17 475.753 1527.61 475.289 1527.18 474.717L1520.23 465.449C1519.71 464.761 1519.39 463.942 1519.32 463.085C1519.24 462.228 1519.4 461.367 1519.79 460.597C1520.17 459.827 1520.76 459.18 1521.5 458.728C1522.23 458.275 1523.07 458.036 1523.93 458.036H1591.12ZM1530.88 488.154C1530.16 488.159 1529.46 488.329 1528.81 488.65C1528.17 488.971 1527.61 489.436 1527.18 490.008L1520.23 499.275C1519.71 499.963 1519.39 500.782 1519.32 501.639C1519.24 502.496 1519.4 503.358 1519.79 504.127C1520.17 504.897 1520.76 505.544 1521.5 505.997C1522.23 506.449 1523.07 506.689 1523.93 506.689H1591.12C1591.84 506.684 1592.55 506.514 1593.19 506.193C1593.83 505.871 1594.39 505.407 1594.83 504.835L1601.78 495.568C1602.29 494.88 1602.61 494.061 1602.69 493.204C1602.76 492.347 1602.6 491.485 1602.21 490.716C1601.83 489.946 1601.24 489.299 1600.51 488.846C1599.77 488.394 1598.93 488.154 1598.07 488.154H1530.88Z" fill="#C3C3C3"/>
<path d="M242.472 370.923C245.757 372.753 247.793 375.41 249.347 379.215C250.013 380.846 250.519 382.86 251.468 385.961C253.649 393.633 254.537 395.807 257.883 398.564C259.858 400.294 261.612 401.481 265.823 403.25C269.873 405.401 271.626 406.588 272.835 407.997L274.168 411.259L274.229 412.185L274.55 411.419C275.293 408.579 274.826 404.33 273.655 400.685L273.433 400.142L272.729 400.746C271.381 402.882 269.429 404.314 268.28 403.832C267.897 403.671 267.293 402.966 267.453 402.584C267.231 402.04 267.392 401.657 268.097 401.052C269.184 400.608 269.827 399.077 270.409 396.62C270.731 395.854 270.509 395.31 270.509 395.31C270.287 394.767 269.238 392.975 267.867 391.949C264.461 388.266 259.423 385.249 254.125 383.924L252.815 383.825L252.371 382.738C251.3 377.784 249.041 374.583 246.301 372.531C244.93 371.505 243.016 370.701 241.868 370.219C241.485 370.058 241.485 370.058 242.472 370.923ZM242.992 390.056C244.14 390.539 244.684 390.317 244.079 389.612C244.179 388.303 243.674 386.29 243.995 385.524C244.156 385.141 244.256 383.832 244.355 382.523C245.198 378.373 245.075 376.52 243.483 374.951C243.039 373.863 242.051 372.998 240.903 372.516L240.52 372.355L240.198 373.12C238.529 376.022 238.452 380.493 239.241 383.977C239.424 386.756 241.461 389.413 242.992 390.056ZM274.481 424.451C275.806 419.152 273.968 413.877 269.252 410.095C267.499 408.908 266.289 407.499 263.005 405.669C257.584 402.491 255.992 400.922 254.721 398.586C254.499 398.043 254.116 397.882 254.116 397.882L253.473 399.413C251.222 404.772 252.998 409.121 260.738 416.426C265.898 421.296 267.713 423.409 268.823 426.127C269.711 428.301 270.216 430.315 269.412 432.229L269.09 432.995C269.473 433.156 271.203 431.18 272.069 430.193L274.481 424.451Z" fill="#C8C8C8"/>
<path d="M270.808 391.382C272.844 394.039 272.744 395.348 271.136 399.176C270.332 401.09 270.172 401.473 269.628 401.695C268.923 402.3 268.923 402.3 269.467 402.078C270.715 401.251 271.358 399.72 272.545 397.967C273.028 396.818 273.188 396.436 273.732 396.213C274.276 395.991 274.276 395.991 274.115 396.374C274.337 396.918 275.99 399.414 276.434 400.501L276.878 401.588L276.595 400.118C276.373 399.575 275.868 397.561 275.202 395.93C273.87 392.669 273.87 392.669 274.452 390.211C274.712 388.519 275.738 387.148 276.06 386.383C276.221 386 276.764 385.778 276.382 385.617C276.221 386 275.838 385.839 275.677 386.222C274.812 387.21 273.947 388.197 273.304 389.729C272.821 390.877 272.66 391.26 272.278 391.099C271.895 390.938 271.895 390.938 270.685 389.529C269.698 388.664 267.339 386.773 267.339 386.773C267.561 387.316 267.944 387.477 268.166 388.021C269.215 389.813 270.203 390.678 270.808 391.382ZM243.764 421.455C243.381 421.294 241.306 420.873 239.231 420.452C235.464 419.77 233.389 419.349 231.537 419.471L228.757 419.655L229.523 419.976C231.759 420.015 234.216 420.597 237.661 422.044C239.193 422.687 240.724 423.33 241.268 423.108C244.491 424.012 246.726 424.05 249.445 422.94C250.532 422.496 251.78 421.67 252.645 420.682C253.349 420.077 253.51 419.694 253.993 418.546C254.636 417.015 254.636 417.015 254.736 415.706C254.835 414.396 254.774 413.47 254.33 412.383L253.947 412.222L254.008 413.148C253.687 413.914 253.909 414.457 253.587 415.223C252.362 419.212 248.618 421.692 243.764 421.455ZM266.066 429.472C265.339 426.915 264.068 424.58 261.044 421.058C258.625 418.24 257.798 416.992 257.576 416.448C257.193 416.288 257.354 415.905 256.971 415.744C256.971 415.744 256.81 416.127 256.428 415.966C254.697 417.941 254.115 420.399 254.138 423.561C254.421 425.031 254.321 426.34 255.171 430.75C255.799 434.617 256.143 437.013 256.265 438.866C256.066 441.485 255.101 443.781 252.988 445.596L252.506 446.744C252.506 446.744 253.049 446.522 253.815 446.844C258.064 446.377 261.648 444.279 264.021 440.773C264.886 439.785 266.173 436.723 266.655 435.574C266.694 433.339 266.571 431.486 266.066 429.472ZM237.561 445.871C237.117 444.783 236.833 443.313 237.094 441.621C237.255 441.238 237.354 439.929 237.837 438.781C238.74 435.558 238.618 433.705 238.495 431.852C237.99 429.838 236.337 427.342 234.201 425.995C232.447 424.808 230.533 424.004 228.619 423.2C224.47 422.357 219.455 422.502 215.267 423.896L213.797 424.179L214.562 424.5C218.834 427.196 219.822 428.061 221.437 432.793C222.547 435.511 222.769 436.054 224.14 437.08C226.276 438.428 228.511 438.466 230.081 436.874C230.785 436.269 231.429 434.738 231.367 433.811C231.406 431.576 228.887 430.067 226.873 430.573C225.242 431.239 224.982 432.931 226.352 433.957C226.735 434.117 226.735 434.117 226.352 433.957C225.748 433.252 225.908 432.869 226.069 432.487C226.712 430.955 228.565 430.833 229.775 432.242C230.762 433.107 230.824 434.033 230.341 435.182C230.02 435.948 229.315 436.552 228.772 436.774C228.228 436.996 226.919 436.897 226.153 436.575C225.005 436.093 224.561 435.006 224.117 433.918C223.229 431.744 225.12 429.386 227.516 429.041C229.369 428.919 231.666 429.884 232.715 431.675C234.147 433.628 234.43 435.098 234.353 439.569C234.253 440.878 234.315 441.805 234.598 443.275C235.164 446.215 236.596 448.167 238.51 448.971C239.658 449.454 240.967 449.553 242.277 449.653C243.203 449.592 244.673 449.309 244.673 449.309C244.29 449.148 244.29 449.148 243.747 449.37C240.906 448.627 238.77 447.279 237.561 445.871ZM239.493 396.242C238.888 395.538 237.74 395.055 236.974 394.734C235.665 394.634 234.034 395.3 233.551 396.449C232.847 397.053 232.204 398.585 232.426 399.128C232.487 400.055 232.87 400.215 234.401 400.859C236.698 401.824 239.477 401.64 240.342 400.652C240.825 399.504 240.702 397.651 239.493 396.242ZM218.383 417.549C218.865 416.4 218.865 416.4 218.804 415.474C218.904 414.165 218.46 413.077 217.028 411.125C215.375 408.629 214.869 406.615 215.291 404.54C215.551 402.848 216.416 401.861 219.073 399.824C221.891 397.405 222.756 396.417 224.042 393.355C224.846 391.441 225.551 390.836 226.255 390.231C227.343 389.787 227.725 389.948 229.417 390.208C231.875 390.79 233.567 391.051 235.198 390.385C236.668 390.102 237.533 389.114 238.176 387.583L238.659 386.434L238.115 386.656C236.783 383.395 224.052 356.88 223.669 356.719C223.669 356.719 224.113 357.806 224.397 359.277C229.809 376.412 234.831 384.826 235.114 386.296C235.558 387.384 234.693 388.371 233.383 388.272C232.457 388.333 231.531 388.394 230.382 387.912C229.617 387.59 229.395 387.046 229.395 387.046C229.173 386.503 229.173 386.503 228.484 381.71C227.856 377.843 227.068 374.36 226.44 370.493L227.779 382.315C227.741 384.55 226.654 384.994 226.493 385.377C226.171 386.143 226.171 386.143 224.923 386.97C223.132 388.018 222.106 389.389 220.436 392.29C218.606 395.575 216.332 397.772 211.118 400.536C208.078 402.411 207.535 402.633 206.448 403.078C205.2 403.904 204.878 404.67 204.235 406.201C203.592 407.732 203.109 408.881 203.071 411.116C202.81 412.809 202.871 413.735 203.599 416.292C204.104 418.306 204.004 419.615 203.683 420.381C203.522 420.764 203.522 420.764 205.214 421.024C209.364 421.866 213.452 421.782 215.787 420.512C217.035 419.685 217.579 419.463 218.383 417.549Z" fill="#C8C8C8"/>
<path d="M1531.08 568.065C1528.56 566.603 1526.29 565.892 1524.36 565.605C1523.85 564.504 1522.62 563.21 1520.11 561.778C1511.88 557.077 1503.65 561.729 1503.65 561.729L1492.67 568.065L1498.16 571.23L1509.13 564.894C1509.13 564.894 1511.88 563.309 1514.62 564.894C1517.37 566.48 1514.62 568.065 1514.62 568.065L1503.65 574.401L1509.13 577.566L1520.12 571.225C1520.28 571.132 1522.94 569.695 1525.59 571.23C1528.34 572.816 1525.59 574.396 1525.59 574.396L1514.62 580.732L1520.11 583.902L1533.83 575.981C1533.83 575.981 1539.31 572.816 1531.08 568.065Z" fill="#DFDFDF"/>
<path d="M1492.67 568.064C1492.67 568.064 1489.93 569.649 1489.93 572.815V588.638C1489.93 588.638 1489.93 591.808 1487.18 590.223C1484.44 588.638 1484.44 585.472 1484.44 585.472V569.649C1484.44 569.452 1484.45 569.259 1484.47 569.072C1484.77 566.286 1487.18 564.894 1487.18 564.894L1481.69 561.728C1481.69 561.728 1481.69 561.728 1481.68 561.733C1481.52 561.827 1478.94 563.412 1478.94 566.479V582.302C1478.94 582.302 1478.94 585.472 1476.2 583.887C1473.45 582.302 1473.45 579.136 1473.45 579.136V563.313C1473.45 560.148 1476.2 558.563 1476.2 558.563L1470.71 555.392C1470.71 555.392 1467.97 556.977 1467.97 560.143V575.966C1467.97 575.966 1467.97 585.472 1476.2 590.223C1478.72 591.68 1480.47 591.793 1481.69 591.255C1482.9 593.196 1484.65 595.102 1487.17 596.559C1495.4 601.31 1495.4 591.808 1495.4 591.808V575.985C1495.4 572.815 1498.15 571.235 1498.15 571.235L1492.67 568.064Z" fill="#BABABA"/>
<path d="M1500.91 582.356L1506.39 585.522V591.858L1500.91 588.692V582.356Z" fill="#D8D8D8"/>
<path d="M1514.62 580.736C1514.62 580.736 1511.87 582.322 1511.87 585.487V601.31C1511.87 601.31 1511.87 604.48 1509.13 602.895C1506.38 601.31 1506.38 598.144 1506.38 598.144L1500.9 594.974C1500.9 594.974 1500.9 604.48 1509.13 609.231C1517.36 613.982 1517.36 604.48 1517.36 604.48V588.658C1517.36 585.492 1520.11 583.907 1520.11 583.907L1514.62 580.736ZM1531.08 596.574L1542.06 602.91V596.574L1531.08 590.238C1531.08 590.238 1522.85 585.606 1522.85 594.989C1522.85 604.372 1531.08 609.246 1531.08 609.246L1533.83 610.831C1533.83 610.831 1536.58 612.416 1536.58 615.582C1536.58 618.752 1533.83 617.167 1533.83 617.167L1522.85 610.831V617.167L1533.83 623.503C1533.83 623.503 1542.06 628.254 1542.06 618.752C1542.06 609.251 1536.57 606.08 1536.57 606.08L1531.08 602.915C1531.08 602.915 1528.34 601.33 1528.34 598.164C1528.34 594.989 1531.08 596.574 1531.08 596.574Z" fill="#D8D8D8"/>
</svg>
