<svg width="1000" height="1000" viewBox="0 0 1000 1000" fill="none" xmlns="http://www.w3.org/2000/svg">
<rect width="1000" height="1000" rx="25" fill="white"/>
<path d="M728.901 626.888C723.27 626.888 718.18 625.949 713.632 624.072C709.084 622.123 705.438 619.163 702.695 615.192C700.023 611.149 698.688 606.131 698.688 600.139C698.688 590.826 701.178 583.751 706.16 578.914C711.141 574.077 718.217 571.658 727.385 571.658C736.482 571.658 743.34 574.005 747.961 578.697C752.654 583.39 755 590.176 755 599.056C755 601.583 753.845 602.847 751.535 602.847H711.791C711.791 607.611 713.452 611.293 716.773 613.892C720.094 616.419 724.714 617.683 730.634 617.683C736.338 617.683 741.463 616.383 746.012 613.784C746.517 613.495 746.914 613.351 747.203 613.351C747.708 613.351 748.105 613.676 748.394 614.326L750.993 618.982C751.21 619.415 751.318 619.812 751.318 620.173C751.318 620.679 750.993 621.148 750.343 621.581C747.383 623.386 744.171 624.722 740.705 625.588C737.312 626.454 733.378 626.888 728.901 626.888ZM742.438 594.833C742.438 590.357 741.175 586.855 738.648 584.328C736.193 581.802 732.475 580.538 727.494 580.538C722.44 580.538 718.541 581.838 715.798 584.437C713.127 587.036 711.791 590.501 711.791 594.833H742.438Z" fill="black"/>
<path d="M667.994 626.888C658.392 626.888 650.884 624.541 645.469 619.849C640.127 615.084 637.456 608.297 637.456 599.489C637.456 594.003 638.683 589.166 641.138 584.978C643.592 580.791 647.094 577.542 651.642 575.232C656.262 572.849 661.641 571.658 667.778 571.658C672.326 571.658 676.188 572.091 679.365 572.958C682.541 573.824 685.501 575.232 688.245 577.181C688.895 577.614 689.22 578.084 689.22 578.589C689.22 579.022 689.039 579.527 688.678 580.105L685.754 585.195C685.321 585.917 684.924 586.278 684.563 586.278C684.202 586.278 683.697 586.061 683.047 585.628C680.809 584.256 678.571 583.246 676.333 582.596C674.167 581.874 671.568 581.513 668.536 581.513C663.121 581.513 658.861 583.137 655.757 586.386C652.653 589.563 651.1 593.93 651.1 599.489C651.1 605.337 652.653 609.741 655.757 612.701C658.861 615.589 663.41 617.033 669.402 617.033C672.434 617.033 675.069 616.672 677.307 615.95C679.545 615.228 681.711 614.181 683.805 612.809C684.382 612.449 684.852 612.268 685.213 612.268C685.646 612.268 686.079 612.629 686.512 613.351L689.653 618.657C689.941 619.018 690.086 619.415 690.086 619.849C690.086 620.354 689.725 620.859 689.003 621.365C686.115 623.242 683.011 624.613 679.69 625.48C676.369 626.418 672.47 626.888 667.994 626.888Z" fill="black"/>
<path d="M595.591 626.888C588.516 626.888 582.885 624.758 578.697 620.498C574.51 616.167 572.417 610.102 572.417 602.305C572.417 596.241 573.752 590.898 576.423 586.278C579.095 581.585 582.885 577.975 587.794 575.448C592.776 572.922 598.551 571.658 605.121 571.658C614.29 571.658 622.051 573.824 628.404 578.156V622.339C628.404 623.422 628.151 624.18 627.646 624.613C627.213 625.047 626.419 625.263 625.263 625.263H619.307C618.513 625.263 617.899 625.119 617.466 624.83C617.105 624.469 616.853 623.928 616.708 623.206L615.842 618.982C613.604 621.726 610.824 623.747 607.503 625.047C604.255 626.274 600.284 626.888 595.591 626.888ZM600.789 617.033C604.616 617.033 607.973 615.914 610.86 613.676C613.82 611.438 615.3 608.478 615.3 604.796V583.679C613.784 582.885 612.232 582.343 610.644 582.054C609.128 581.693 607.251 581.513 605.013 581.513C599.309 581.513 594.725 583.318 591.259 586.927C587.794 590.537 586.061 595.519 586.061 601.872C586.061 607.07 587.253 610.896 589.635 613.351C592.09 615.806 595.808 617.033 600.789 617.033Z" fill="black"/>
<path d="M514.502 647.138C513.058 647.138 512.011 646.813 511.361 646.164C510.784 645.514 510.495 644.539 510.495 643.24V578.481C513.239 576.531 516.884 574.907 521.433 573.607C526.053 572.308 530.674 571.658 535.294 571.658C556.231 571.658 566.699 580.899 566.699 599.381C566.699 607.9 564.389 614.614 559.768 619.524C555.22 624.433 548.939 626.888 540.925 626.888C533.634 626.888 528.039 624.794 524.14 620.607V643.24C524.14 644.611 523.815 645.586 523.165 646.164C522.588 646.813 521.541 647.138 520.025 647.138H514.502ZM537.677 617.033C542.802 617.033 546.629 615.481 549.156 612.376C551.682 609.272 552.946 604.796 552.946 598.948C552.946 592.667 551.466 588.227 548.506 585.628C545.546 582.957 540.998 581.621 534.861 581.621C530.313 581.621 526.739 582.307 524.14 583.679V605.012C524.14 608.694 525.44 611.618 528.039 613.784C530.638 615.95 533.85 617.033 537.677 617.033Z" fill="black"/>
<path d="M473.04 626.888C467.914 626.888 462.861 626.346 457.879 625.264C452.97 624.108 449.035 622.52 446.075 620.499C445.137 619.849 444.667 619.271 444.667 618.766C444.667 618.261 444.812 617.827 445.101 617.466L448.674 611.835C449.107 611.185 449.505 610.861 449.866 610.861C450.227 610.861 450.696 611.041 451.273 611.402C453.945 612.99 457.049 614.29 460.587 615.301C464.124 616.239 467.698 616.708 471.308 616.708C476.217 616.708 479.899 615.914 482.353 614.326C484.88 612.665 486.144 610.03 486.144 606.421C486.144 604.255 485.674 602.522 484.736 601.223C483.797 599.923 482.426 598.804 480.621 597.865C478.816 596.927 475.892 595.663 471.849 594.075L469.358 593.101C464.666 591.223 460.767 589.419 457.663 587.686C454.63 585.953 452.104 583.679 450.082 580.863C448.061 578.048 447.05 574.619 447.05 570.576C447.05 564.006 449.541 558.952 454.522 555.415C459.576 551.805 466.182 550 474.34 550C479.321 550 483.617 550.469 487.227 551.408C490.909 552.346 494.085 553.79 496.756 555.74C497.623 556.389 498.056 557.003 498.056 557.581C498.056 558.014 497.911 558.411 497.623 558.772L494.157 564.403C493.724 565.053 493.363 565.378 493.074 565.378C492.786 565.378 492.316 565.161 491.667 564.728C487.046 561.768 481.307 560.288 474.448 560.288C469.9 560.288 466.47 561.118 464.16 562.779C461.85 564.439 460.695 567.074 460.695 570.684C460.695 572.922 461.164 574.727 462.103 576.099C463.113 577.398 464.557 578.517 466.434 579.456C468.311 580.394 471.344 581.658 475.531 583.246L478.238 584.329C483.509 586.422 487.624 588.372 490.584 590.177C493.544 591.909 495.818 594.111 497.406 596.783C499.067 599.382 499.897 602.739 499.897 606.854C499.897 613.063 497.55 617.972 492.858 621.582C488.237 625.119 481.631 626.888 473.04 626.888Z" fill="black"/>
<path d="M326.895 625.263C326.389 625.263 325.956 625.119 325.595 624.83C325.307 624.541 325.162 624.18 325.162 623.747C325.162 623.314 325.343 622.809 325.704 622.231L351.802 587.577L327.111 554.656C326.678 554.079 326.462 553.537 326.462 553.032C326.462 552.599 326.606 552.274 326.895 552.057C327.184 551.768 327.617 551.624 328.194 551.624H338.266C339.06 551.624 339.637 551.732 339.998 551.949C340.359 552.093 340.72 552.418 341.081 552.924L359.491 577.289L377.901 552.924C378.262 552.418 378.623 552.093 378.984 551.949C379.345 551.732 379.922 551.624 380.716 551.624H390.896C391.401 551.624 391.798 551.768 392.087 552.057C392.376 552.274 392.52 552.599 392.52 553.032C392.52 553.537 392.304 554.079 391.87 554.656L367.18 587.577L393.278 622.231C393.639 622.809 393.82 623.314 393.82 623.747C393.82 624.18 393.639 624.541 393.278 624.83C392.99 625.119 392.592 625.263 392.087 625.263H382.016C381.294 625.263 380.752 625.191 380.391 625.047C380.03 624.902 379.67 624.577 379.309 624.072L359.491 597.865L339.782 624.072C339.421 624.577 339.06 624.902 338.699 625.047C338.338 625.191 337.796 625.263 337.074 625.263H326.895Z" fill="black"/>
<path d="M280.845 626.888C269.005 626.888 260.053 623.603 253.988 617.033C247.996 610.391 245 600.862 245 588.444C245 576.026 247.996 566.533 253.988 559.963C260.053 553.321 269.005 550 280.845 550C292.613 550 301.529 553.321 307.593 559.963C313.658 566.605 316.69 576.099 316.69 588.444C316.69 600.789 313.658 610.283 307.593 616.925C301.529 623.567 292.613 626.888 280.845 626.888ZM293.082 563.537C289.978 561.371 285.899 560.288 280.845 560.288C273.337 560.288 267.741 562.634 264.06 567.327C260.45 572.02 258.645 579.059 258.645 588.444C258.645 595.88 260.161 601.62 263.193 605.663L293.082 563.537ZM280.845 616.708C288.353 616.708 293.912 614.362 297.522 609.669C301.132 604.977 302.937 597.902 302.937 588.444C302.937 581.152 301.493 575.449 298.605 571.334L268.608 613.676C271.857 615.698 275.936 616.708 280.845 616.708Z" fill="black"/>
<rect x="417" y="353" width="165" height="165" fill="#0D00FF"/>
<path d="M506.426 394.037H522.284V409.895H506.426V394.037ZM506.426 409.895H522.284V425.753H506.426V409.895ZM538.142 394.037H554V409.895H538.142V394.037ZM538.142 409.895H554V425.753H538.142V409.895ZM522.284 425.753H538.142V441.611H522.284V425.753ZM506.426 441.611H522.284V457.469H506.426V441.611ZM506.426 457.469H522.284V473.327H506.426V457.469ZM538.142 441.611H554V457.469H538.142V441.611ZM538.142 457.469H554V473.327H538.142V457.469Z" fill="white"/>
<path d="M458.913 394.037H474.771V409.895H458.913V394.037ZM474.771 409.895H490.629V425.753H474.771V409.895ZM474.771 425.753H490.629V441.611H474.771V425.753ZM474.771 441.611H490.629V457.469H474.771V441.611ZM458.913 457.469H474.771V473.327H458.913V457.469ZM443.055 441.611H458.913V457.469H443.055V441.611ZM443.055 425.753H458.913V441.611H443.055V425.753ZM443.055 409.895H458.913V425.753H443.055V409.895ZM443.055 394.037H458.913V409.895H443.055V394.037ZM474.771 394.037H490.629V409.895H474.771V394.037ZM474.771 457.469H490.629V473.327H474.771V457.469ZM443.055 457.469H458.913V473.327H443.055V457.469Z" fill="white"/>
<path fill-rule="evenodd" clip-rule="evenodd" d="M396.899 378H417.5V364H391.101L360.101 395H320V409H365.899L396.899 378Z" fill="black"/>
<rect x="417" y="364" width="21" height="14" fill="white"/>
<path fill-rule="evenodd" clip-rule="evenodd" d="M396.899 492H417.5V506H391.101L360.101 475H320V461H365.899L396.899 492Z" fill="black"/>
<rect width="21" height="14" transform="matrix(1 0 0 -1 417 506)" fill="white"/>
<path fill-rule="evenodd" clip-rule="evenodd" d="M602.101 378H581.5V364H607.899L638.899 395H679V409H633.101L602.101 378Z" fill="black"/>
<rect width="21" height="14" transform="matrix(-1 0 0 1 582 364)" fill="white"/>
<path fill-rule="evenodd" clip-rule="evenodd" d="M602.101 492H581.5V506H607.899L638.899 475H679V461H633.101L602.101 492Z" fill="black"/>
<rect x="582" y="506" width="21" height="14" transform="rotate(180 582 506)" fill="white"/>
</svg>
