<svg width="176" height="176" viewBox="0 0 176 176" fill="none" xmlns="http://www.w3.org/2000/svg">
<path d="M10.5742 120.051C6.3577 109.872 4.1875 98.9616 4.1875 87.9434C4.1875 76.9251 6.3577 66.0148 10.5742 55.8353C14.7907 45.6558 20.9709 36.4065 28.7619 28.6154C36.553 20.8244 45.8023 14.6442 55.9818 10.4277C66.1613 6.21121 77.0716 4.04102 88.0899 4.04102C99.1081 4.04102 110.018 6.21121 120.198 10.4277C130.377 14.6442 139.627 20.8244 147.418 28.6154C155.209 36.4065 161.389 45.6558 165.605 55.8353C169.822 66.0148 171.992 76.9251 171.992 87.9434C171.992 98.9616 169.822 109.872 165.605 120.051C161.389 130.231 155.209 139.48 147.418 147.271C139.627 155.062 130.377 161.243 120.198 165.459C110.018 169.676 99.1081 171.846 88.0899 171.846C77.0716 171.846 66.1613 169.676 55.9818 165.459C45.8023 161.243 36.553 155.062 28.7619 147.271C20.9709 139.48 14.7907 130.231 10.5742 120.051Z" fill="#F7931A" stroke="white" stroke-width="7"/>
<path d="M111.916 88.3066L110.932 88.043C119.342 90.1465 127.994 85.1504 130.256 76.707C130.807 74.6744 130.951 72.5529 130.679 70.4645C130.407 68.3761 129.725 66.3621 128.672 64.5382C127.619 62.7143 126.216 61.1167 124.543 59.837C122.871 58.5574 120.962 57.6211 118.926 57.082L111.82 55.1777L116.043 39.418L105.912 36.7031L101.689 52.4629L93.5664 50.2871L97.7969 34.5L87.6504 31.7812L83.4199 47.5684L64.8242 42.5859L61.8652 53.6309L74.8105 57.0996L61.2754 107.613L48.3301 104.145L45.3711 115.189L63.9668 120.172L59.5918 136.5L69.7383 139.219L74.1133 122.891L82.2363 125.066L77.8633 141.389L87.9941 144.104L92.3672 127.781L100.74 130.025C112.277 133.117 124.143 126.268 127.234 114.729C130.326 103.189 123.453 91.3984 111.916 88.3066ZM91.5059 61.1973L98.8223 63.1582L103.676 64.459C105.645 64.9863 107.254 66.0215 108.52 67.4922C110.74 69.8965 111.689 73.3926 110.783 76.7695C109.879 80.1465 107.309 82.7012 104.184 83.6719C102.354 84.3125 100.443 84.4043 98.4727 83.877L93.6191 82.5762L86.3027 80.6152L91.5059 61.1973ZM95.9102 114.557C95.6797 114.57 95.5391 114.533 95.3281 114.477L85.7598 111.912L78.4434 109.951L83.6465 90.5332L90.9629 92.4941L100.531 95.0586C100.742 95.1152 100.883 95.1523 101.076 95.2793C106.084 96.8477 109.016 102.232 107.639 107.369C106.262 112.506 101.031 115.703 95.9102 114.557Z" fill="white"/>
</svg>
