<svg width="168" height="168" viewBox="0 0 168 168" fill="none" xmlns="http://www.w3.org/2000/svg">
<path d="M163.542 84C163.542 127.934 127.926 163.55 83.9919 163.55C40.0668 163.55 4.4502 127.934 4.4502 84C4.4502 40.0661 40.0668 4.44995 83.9919 4.44995C127.926 4.44995 163.542 40.0663 163.542 84Z" fill="black" stroke="white" stroke-width="7"/>
<path d="M55.6412 101.725C55.8927 101.467 56.1933 101.261 56.5253 101.121C56.8574 100.981 57.2141 100.909 57.5746 100.908H124.691C125.883 100.908 126.516 102.417 125.658 103.3L112.416 116.833C112.165 117.092 111.865 117.298 111.533 117.439C111.201 117.579 110.844 117.651 110.483 117.65H43.3079C42.1079 117.65 41.4746 116.133 42.3412 115.258L55.6246 101.733H55.6412V101.725Z" fill="#C931F7"/>
<path d="M55.6412 51.1751C55.8924 50.9164 56.1929 50.7108 56.525 50.5705C56.8571 50.4303 57.2141 50.3581 57.5746 50.3584H124.691C125.883 50.3584 126.516 51.8751 125.658 52.7501L112.416 66.2834C112.165 66.5409 111.864 66.7452 111.532 66.8841C111.2 67.023 110.843 67.0936 110.483 67.0917H43.3079C42.1079 67.0917 41.4746 65.5834 42.3412 64.7001L55.6246 51.1667H55.6412V51.1751Z" fill="#1CE2AF"/>
<path d="M112.358 76.3001C112.107 76.0425 111.806 75.8382 111.474 75.6994C111.142 75.5605 110.785 75.4899 110.425 75.4917H43.3167C42.1167 75.4917 41.4834 77.0001 42.35 77.8751L55.5834 91.4001C55.8345 91.6587 56.135 91.8643 56.4672 92.0046C56.7993 92.1449 57.1562 92.217 57.5167 92.2167H124.633C125.825 92.2167 126.458 90.7001 125.6 89.8251L112.358 76.3001Z" fill="#6697CE"/>
</svg>
