<svg width="200" height="200" viewBox="0 0 200 200" fill="none" xmlns="http://www.w3.org/2000/svg">
<path d="M99.961 3.5C153.241 3.5 196.422 46.6811 196.422 99.961C196.422 153.241 153.241 196.422 99.961 196.422C46.6811 196.422 3.5 153.241 3.5 99.961C3.5 46.6816 46.7002 3.5 99.961 3.5Z" fill="#9B3EF2" stroke="white" stroke-width="7"/>
<path opacity="0.45" d="M118.146 42L99.4482 75.2873H62.0527L80.7505 42H118.146Z" fill="white"/>
<path opacity="0.6" d="M99.4487 75.2873H136.897L118.146 42H80.751L99.4487 75.2873Z" fill="white"/>
<path opacity="0.8" d="M80.7504 108.575L99.4482 75.2873L80.7504 42L62 75.2873L80.7504 108.575Z" fill="white"/>
<path opacity="0.45" d="M80.9082 158.453L99.606 125.165H137.054L118.356 158.453H80.9082Z" fill="white"/>
<path opacity="0.6" d="M99.6591 125.218H62.2109L80.9087 158.453H118.357L99.6591 125.218Z" fill="white"/>
<path opacity="0.8" d="M118.357 91.9309L99.6592 125.165L118.357 158.453L137.055 125.165L118.357 91.9309Z" fill="white"/>
</svg>
