<svg width="200" height="200" viewBox="0 0 200 200" fill="none" xmlns="http://www.w3.org/2000/svg">
<path d="M196.321 99.9651C196.321 152.987 153.341 195.968 100.319 195.968C47.2986 195.968 4.31641 152.987 4.31641 99.9651C4.31641 46.9439 47.2986 3.96265 100.319 3.96265C153.341 3.96265 196.321 46.9439 196.321 99.9651Z" fill="#1BA27A" stroke="white" stroke-width="7"/>
<path d="M147.018 50.6377H52.7988V73.384H88.5351V106.817H111.281V73.384H147.018V50.6377Z" fill="white"/>
<path d="M100.124 110.378C70.5618 110.378 46.5947 105.7 46.5947 99.9274C46.5947 94.1563 70.5608 89.4767 100.124 89.4767C129.686 89.4767 153.652 94.1563 153.652 99.9274C153.652 105.7 129.686 110.378 100.124 110.378ZM160.229 101.67C160.229 94.2269 133.319 88.1941 100.124 88.1941C66.93 88.1941 40.0186 94.2269 40.0186 101.67C40.0186 108.224 60.8852 113.685 88.536 114.895V162.889H111.28V114.913C139.144 113.741 160.229 108.258 160.229 101.67Z" fill="white"/>
</svg>
