<svg width="195" height="195" viewBox="0 0 195 195" fill="none" xmlns="http://www.w3.org/2000/svg">
<rect x="3.5" y="3.5" width="188" height="188" rx="94" fill="#F0F0F0" stroke="white" stroke-width="7"/>
<path d="M74.1943 137.259L87.8945 140.905V136.138L89.0134 135.016H96.8417V144.55H88.4533L78.1085 140.064L74.197 137.259H74.1943Z" fill="#CDBDB2"/>
<path d="M118.929 137.259L105.509 140.905V136.138L104.39 135.016H96.5615V144.55H104.95L115.293 140.064L118.929 137.259Z" fill="#CDBDB2"/>
<path d="M89.0134 126.883L87.8945 136.138L89.2922 135.016H103.831L105.509 136.138L104.39 126.883L102.153 125.481L90.9698 125.761L89.0134 126.883Z" fill="#393939"/>
<path d="M81.4639 64.3496L88.1746 80.0533L91.2499 125.762H102.153L105.509 80.0533L111.659 64.3496H81.4639Z" fill="#F89C35"/>
<path d="M52.1086 98.8415L44.2803 121.556L63.851 120.434H76.4323V110.619L75.8722 90.4282L73.0769 92.6725L52.1086 98.8415Z" fill="#F89D35"/>
<path d="M66.9258 101.365L89.8519 101.926L87.3354 113.704L76.4318 110.899L66.9258 101.365Z" fill="#D87C30"/>
<path d="M66.9258 101.646L76.4318 110.619V119.593L66.9258 101.646Z" fill="#EA8D3A"/>
<path d="M76.4316 110.899L87.614 113.704L91.2494 125.761L88.7329 127.164L76.4316 119.873V110.899Z" fill="#F89D35"/>
<path d="M76.4321 119.873L74.1943 137.259L89.0134 126.883L76.4321 119.873Z" fill="#EB8F35"/>
<path d="M89.8522 101.926L91.2499 125.762L87.0557 113.564L89.8522 101.926Z" fill="#EA8E3A"/>
<path d="M63.5703 120.154L76.4316 119.873L74.1939 137.259L63.5703 120.154Z" fill="#D87C30"/>
<path d="M50.4309 144.831L74.1958 137.259L63.571 120.154L44.2803 121.556L50.4309 144.831Z" fill="#EB8F35"/>
<path d="M88.1742 80.0532L76.1517 90.1481L66.9258 101.364L89.8519 102.206L88.1742 80.0532Z" fill="#E8821E"/>
<path d="M74.1943 137.259L89.0134 126.883L87.8945 135.858V140.905L77.8297 138.942L74.1956 137.259H74.1943ZM118.929 137.259L104.39 126.883L105.509 135.858V140.905L115.572 138.942L118.93 137.259H118.929Z" fill="#DFCEC3"/>
<path d="M83.7 106.973L86.7753 113.424L75.873 110.619L83.7 106.973Z" fill="#393939"/>
<path d="M50.1504 51.1689L88.1743 80.0533L81.7436 64.3496L50.1504 51.1689Z" fill="#E88F35"/>
<path d="M50.1502 51.1689L45.1172 66.5926L47.9138 83.4178L45.956 84.5393L48.7526 87.0637L46.5148 89.0266L49.5901 91.8311L47.6337 93.5127L52.108 99.1215L73.0763 92.6725C73.0763 92.6725 88.4529 80.3333 88.1741 80.0533C87.8941 79.7706 50.1502 51.1689 50.1502 51.1689Z" fill="#8E5A30"/>
<path d="M141.015 98.8415L148.845 121.556L129.273 120.434H116.691V110.619L117.252 90.4282L120.047 92.6725L141.015 98.8415Z" fill="#F89D35"/>
<path d="M126.198 101.365L103.271 101.926L105.788 113.704L116.692 110.899L126.198 101.365Z" fill="#D87C30"/>
<path d="M126.197 101.646L116.691 110.619V119.593L126.197 101.646Z" fill="#EA8D3A"/>
<path d="M116.691 110.899L105.508 113.704L101.873 125.761L104.39 127.164L116.691 119.873V110.899Z" fill="#F89D35"/>
<path d="M116.691 119.873L118.929 137.259L104.39 127.164L116.691 119.873Z" fill="#EB8F35"/>
<path d="M103.271 101.926L101.873 125.762L106.067 113.564L103.271 101.926Z" fill="#EA8E3A"/>
<path d="M129.553 120.154L116.691 119.873L118.929 137.259L129.553 120.154Z" fill="#D87C30"/>
<path d="M142.693 144.831L118.928 137.259L129.553 120.154L148.845 121.556L142.694 144.831H142.693Z" fill="#EB8F35"/>
<path d="M104.949 80.0532L116.972 90.1481L126.198 101.364L103.271 102.206L104.949 80.0532Z" fill="#E8821E"/>
<path d="M109.422 106.973L106.347 113.424L117.252 110.619L109.422 106.973Z" fill="#393939"/>
<path d="M142.972 51.1689L104.948 80.0533L111.379 64.3496L142.972 51.1689Z" fill="#E88F35"/>
<path d="M142.972 51.1689L148.005 66.5926L145.209 83.4178L147.167 84.5393L144.37 87.0637L146.608 89.0266L143.532 91.8311L145.489 93.5127L141.016 99.1215L120.045 92.6738C120.045 92.6738 104.668 80.3346 104.947 80.0546C105.228 79.7706 142.972 51.1689 142.972 51.1689Z" fill="#8E5A30"/>
</svg>
